HIERARCHY
ROOT Spine
{
    OFFSET 0.0 0.0 -0.0
    CHANNELS 6 Xposition Yposition Zposition Zrotation Xrotation Yrotation
    JOINT ShoulderCenter
    {
        OFFSET 0.0 20.31477928161621 0.0
        CHANNELS 3 Zrotation Xrotation Yrotation
        JOINT LeftShoulder
        {
            OFFSET 14.495670318603516 0.0 0.0
            CHANNELS 3 Zrotation Xrotation Yrotation
            JOINT LeftElbow
            {
                OFFSET 21.82846450805664 0.0 0.0
                CHANNELS 3 Zrotation Xrotation Yrotation
                JOINT LeftHand
                {
                    OFFSET 24.65749740600586 0.0 0.0
                    CHANNELS 3 Zrotation Xrotation Yrotation
                    End Site
                    {
                        OFFSET 9.862998962402344 0.0 0.0
                    }
                }
            }
        }
        JOINT RightShoulder
        {
            OFFSET -14.495670318603516 0.0 0.0
            CHANNELS 3 Zrotation Xrotation Yrotation
            JOINT RightElbow
            {
                OFFSET -21.82846450805664 0.0 0.0
                CHANNELS 3 Zrotation Xrotation Yrotation
                JOINT RightHand
                {
                    OFFSET -24.65749740600586 0.0 0.0
                    CHANNELS 3 Zrotation Xrotation Yrotation
                    End Site
                    {
                        OFFSET -9.862998962402344 0.0 0.0
                    }
                }
            }
        }
        End Site
        {
            OFFSET 0.0 8.1259126663208 0.0
        }
    }
    JOINT LeftHip
    {
        OFFSET 19.047157530746595 -19.047157530746595 0.0
        CHANNELS 3 Zrotation Xrotation Yrotation
        JOINT LeftKnee
        {
            OFFSET 0.0 -28.45703887939453 0.0
            CHANNELS 3 Zrotation Xrotation Yrotation
            JOINT LeftFoot
            {
                OFFSET 0.0 -35.003265380859375 0.0
                CHANNELS 3 Zrotation Xrotation Yrotation
                End Site
                {
                    OFFSET 0.0 0.0 14.00130558013916
                }
            }
        }
    }
    JOINT RightHip
    {
        OFFSET -19.047157530746595 -19.047157530746595 0.0
        CHANNELS 3 Zrotation Xrotation Yrotation
        JOINT RightKnee
        {
            OFFSET 0.0 -28.45703887939453 0.0
            CHANNELS 3 Zrotation Xrotation Yrotation
            JOINT RightFoot
            {
                OFFSET 0.0 -35.003265380859375 0.0
                CHANNELS 3 Zrotation Xrotation Yrotation
                End Site
                {
                    OFFSET 0.0 0.0 14.00130558013916
                }
            }
        }
    }
}
MOTION
Frames: 5
Frame Time: 0.03333333333333333
-2.519681930541992 13.419039726257324 -356.0559997558594 -0.03945104011782914 15.234464564259486 1.020831828659637 5.036931124408097e-09 -4.0963770885482523e-07 179.4994204150438 -83.13643547571107 4.449245332478138 4.357053425451371 8.391122860230342e-07 1.112055528841324e-06 9.539051727358768 -1.2579342246022699e-15 1.987846675914698e-16 2.1821680306522392e-33 82.64850679947415 -12.76510027194044 -4.792954509208232 1.3272424790275752e-06 1.4292420449169343e-07 -15.874334600476487 5.86414769394836e-15 0.0 0.0 3.5120896694938275 5.4083536253080435 -55.146857491774824 11.822362257934891 -15.39644080844969 70.05474167112565 0.0 0.0 1.8636062586700292e-16 -3.570896133158388 2.6385526937254387 47.07323556785298 -5.100460943784927 -14.605436250213316 -53.400676135376926 7.951386703658791e-16 -8.199867538148127e-16 2.236327510404035e-16
-2.5717029571533203 13.41405963897705 -356.038818359375 0.025958718012620594 15.282667936684827 0.8819866928687969 -1.170971741336956e-08 -4.1873172539900297e-07 179.60122419156946 -83.17300466393584 8.072823802007653 4.052726461934048 -5.570279249811363e-06 -6.800107182075089e-06 9.442011753893095 8.5477407064332e-15 8.896779882007351e-32 1.1927080055488186e-15 83.03768045380002 -8.261131160377712 -4.7472343910198775 3.44426484766754e-06 1.3574668109812991e-06 -15.09086216969017 8.448348372637468e-16 -3.975693351829397e-16 3.975693351829397e-16 3.422375368935031 5.337411218122 -54.66510508854092 11.735735289700985 -15.263366307813584 69.65260975946799 3.879409832270648e-34 -4.969616689786745e-17 8.945310041616142e-16 -4.2810690977005725 -0.22717828638687607 40.993141090245594 1.2096303377797524 -9.934691939587797 -33.98933380270705 -1.3793457181406746e-33 1.5902773407317584e-15 9.93923337957349e-17
-2.636279821395874 13.383390426635742 -356.0235900878906 0.024393259423022152 15.30716472819122 0.8898246775938277 -1.4415436343540796e-09 -5.854410477937669e-07 179.58401991564796 -82.48019986949156 2.2567126555997286 3.6093570255284964 -2.8445524807519974e-06 7.29677091593927e-06 9.664673981570084 -3.519109818455239e-15 -1.987846675914698e-16 -6.1046824166147826e-33 82.62891505001036 -11.149737301276543 -4.775195397918079 2.40146475027427e-06 1.9796558547520717e-06 -13.88036692906403 -5.86414769394836e-15 7.951386703658794e-16 4.06906986851499e-32 3.457583971152153 5.28850995297983 -54.58096530146369 11.40638915238389 -15.224625126206913 68.87975944392103 -3.9756933518293955e-16 4.9696166897867443e-17 7.143823991568445e-16 -3.5933831670527665 2.456183554911549 46.69639439115271 -4.7673120756615 -14.588501382696565 -53.25189958039853 0.0 0.0 -2.236327510404035e-16
-2.7160379886627197 13.393230438232422 -355.9559020996094 0.16323085605637266 15.443520194393855 0.840009473972027 -5.018711006369428e-08 -1.0291716584391912e-06 179.44221214814846 -82.49258330604711 3.484916654561251 3.569654451006731 1.7528104548603343e-06 2.5421014695395912e-06 8.93829790600768 1.6306554763362757e-15 0.0 0.0 82.54856085897657 -11.27571110325594 -4.783593156713147 -2.528121007631937e-07 -9.755733314519316e-07 -13.385432417369547 4.174478019420866e-15 1.5902773407317584e-15 -1.5902773407317584e-15 3.2139756642229926 5.085768262055274 -53.57816480691484 10.997216252357369 -15.144762371719564 67.50831974573632 0.0 0.0 1.9257264672923636e-16 -4.797403333585957 -0.5824644441910795 41.35494813607418 1.6808903582733032 -10.321497523431697 -35.44883671191603 5.38806921148701e-34 4.9696166897867443e-17 -1.242404172446686e-15
-2.817819118499756 13.384370803833008 -355.91241455078125 0.04211705858443412 15.436723319876661 0.7547852045950557 3.1523067164195464e-09 1.7612695914698243e-07 179.4101781023585 -82.85714681649806 0.057429962743204555 3.4716087618685405 4.21351451213884e-06 2.0235603867540887e-07 9.985573496189998 4.228056699357629e-16 -1.4669018428273385e-33 -3.975693351829396e-16 82.5087390940692 -10.60827920105551 -4.498084147329806 -3.1558343655326253e-06 -4.4539788690904647e-07 -14.090464354251159 9.044702375411874e-15 -1.2552046035080138e-31 -1.5902773407317582e-15 3.523044312023817 5.043444381853885 -54.1350684334364 10.924760931492854 -15.200435805711527 68.12508758649581 3.771648448040907e-35 3.4787316828507215e-16 -1.2424041724466862e-17 -3.340755026298314 1.9550988538952665 45.036828497729935 -4.443542311837443 -13.91753711305161 -51.97273192917663 7.004489974933114e-35 -2.4848083448933725e-17 3.2302508483613845e-16
